:SAMPLES-PER-SECOND 30
:FULLY-SPECIFIED
:DEGREES
16
root  -73.0778 41.658 -3.19723 40.9769 88.2695 39.2455
RightUpLeg  -1.16674 -7.90354 -4.32597
RightLeg  5.72444 -5.6255 3.47652
RightFoot  -4.51938 0.0817231 -1.91548
RightToes  0.000482159 0.542163 -0.142577
Spine  8.81676 1.21733 -1.79586
Spine1  -2.97453 0.75777 2.75058
HEad  -10.9026 0.395817 1.39336
LeftShoulder1  1.68513 -3.55434 -17.1314
LeftArm  -20.2504 19.3352 -14.6327
LeftForeArm  21.1376 -4.80891 -0.0659445
LeftHand  -0.25398 0.0180481 5.50724
RightShoulder  1.06685 1.22939 15.797
RightArm  -23.3321 -13.0557 9.23785
RightForeArm  1.21131 7.21596 2.13966
RightHand  -1.14985 2.63864 -16.7886
LeftUpLeg  -1.97119 3.46538 1.26562
LeftLeg  2.22078 8.56896 -3.41807
LeftFoot  -1.1662 -0.0917403 1.09922
LeftToes  1.06245e-005 4.65855e-005 -8.18503e-006
17
root  -73.0277 41.658 -3.20697 40.3921 88.2325 38.5598
RightUpLeg  -1.17586 -7.85718 -4.32001
RightLeg  5.65833 -5.61231 3.42825
RightFoot  -4.53416 0.0785059 -1.87687
RightToes  0.000482159 0.542163 -0.142577
Spine  8.69642 1.1539 -1.85465
Spine1  -2.92531 0.691143 2.7499
HEad  -10.926 -0.0456001 1.10966
LeftShoulder1  1.65286 -3.45089 -17.0117
LeftArm  -20.1785 19.4734 -14.6491
LeftForeArm  21.0714 -4.89082 -0.100188
LeftHand  -0.25398 0.0180481 5.50724
RightShoulder  1.0499 1.1594 15.769
RightArm  -23.3908 -12.8251 9.27811
RightForeArm  1.41087 7.14038 2.11406
RightHand  -1.15124 2.64126 -16.8036
LeftUpLeg  -1.98337 3.4432 1.23601
LeftLeg  2.18227 8.6265 -3.41914
LeftFoot  -1.15959 -0.0900873 1.08381
LeftToes  1.06245e-005 4.65855e-005 -8.18503e-006
18
root  -72.9755 41.6569 -3.21851 40.0481 88.1424 38.0282
RightUpLeg  -1.31898 -7.87782 -4.36837
RightLeg  5.67663 -5.50897 3.42786
RightFoot  -4.58302 0.0787288 -1.89317
RightToes  0.000482159 0.542163 -0.142577
Spine  8.45482 1.1444 -1.86644
Spine1  -2.89169 0.697468 2.66789
HEad  -10.643 -0.233692 1.10032
LeftShoulder1  1.66244 -3.50051 -16.9786
LeftArm  -20.1364 19.544 -14.568
LeftForeArm  21.0061 -4.85265 -0.0977237
LeftHand  -0.25398 0.0180481 5.50724
RightShoulder  1.0582 1.21034 15.6963
RightArm  -23.2627 -12.9271 9.22071
RightForeArm  0.904328 7.23749 2.18288
RightHand  -1.14683 2.46706 -17.0936
LeftUpLeg  -2.10359 3.40487 1.16512
LeftLeg  2.17945 8.75072 -3.43305
LeftFoot  -1.16416 -0.0918913 1.12187
LeftToes  1.06245e-005 4.65855e-005 -8.18503e-006
19
root  -72.9287 41.6556 -3.23428 39.9465 88.0102 37.7467
RightUpLeg  -1.52364 -7.91561 -4.45202
RightLeg  5.81218 -5.371 3.40624
RightFoot  -4.6512 0.0782819 -1.90022
RightToes  0.000482159 0.542163 -0.142577
Spine  8.20704 1.16757 -1.82118
Spine1  -2.83132 0.757421 2.47838
HEad  -10.2955 -0.335549 1.16328
LeftShoulder1  1.67837 -3.58755 -16.9086
LeftArm  -20.1553 19.549 -14.5152
LeftForeArm  21.0461 -4.79475 -0.0709765
LeftHand  -0.25398 0.0180481 5.50724
RightShoulder  1.08524 1.33464 15.6771
RightArm  -23.1324 -13.1671 9.09226
RightForeArm  0.186675 7.35468 2.25667
RightHand  -1.13877 2.27984 -17.371
LeftUpLeg  -2.21901 3.33758 1.04679
LeftLeg  2.17051 8.94705 -3.44028
LeftFoot  -1.17187 -0.0971136 1.21289
LeftToes  1.06245e-005 4.65855e-005 -8.18503e-006
20
root  -72.8851 41.6549 -3.25241 40.6059 87.9336 38.3505
RightUpLeg  -1.59279 -7.94377 -4.53971
RightLeg  5.95919 -5.30045 3.36033
RightFoot  -4.73619 0.0735074 -1.8409
RightToes  0.000482159 0.542163 -0.142577
Spine  8.15959 1.17125 -1.76554
Spine1  -2.8003 0.801908 2.25082
HEad  -10.164 -0.592313 1.05746
LeftShoulder1  1.66661 -3.59877 -16.6892
LeftArm  -20.1802 19.5737 -14.5991
LeftForeArm  21.1091 -4.90848 -0.0848788
LeftHand  -0.25398 0.0180481 5.50724
RightShoulder  1.09549 1.35362 15.813
RightArm  -23.2716 -13.2244 8.97024
RightForeArm  0.221849 7.30635 2.19462
RightHand  -1.14091 2.29867 -17.3414
LeftUpLeg  -2.19352 3.26134 0.930749
LeftLeg  2.13161 9.08688 -3.4257
LeftFoot  -1.18487 -0.100386 1.27348
LeftToes  1.06245e-005 4.65855e-005 -8.18503e-006
21
root  -72.8379 41.6549 -3.27047 41.6615 87.9922 39.4805
RightUpLeg  -1.38402 -8.01508 -4.61687
RightLeg  5.89642 -5.30388 3.41486
RightFoot  -4.80636 0.067649 -1.76544
RightToes  0.000482159 0.542163 -0.142577
Spine  8.36423 1.15521 -1.70734
Spine1  -2.87716 0.809468 2.1101
HEad  -10.0514 -0.761628 0.893735
LeftShoulder1  1.65113 -3.58655 -16.4967
LeftArm  -20.2071 19.5793 -14.7251
LeftForeArm  21.1359 -5.09976 -0.122842
LeftHand  -0.25398 0.0180481 5.50724
RightShoulder  1.07088 1.21391 15.9704
RightArm  -23.4814 -13.1619 8.89039
RightForeArm  0.881101 7.21255 2.07945
RightHand  -1.16158 2.50985 -17.112
LeftUpLeg  -2.04742 3.23746 0.899153
LeftLeg  2.13526 9.04105 -3.39906
LeftFoot  -1.23721 -0.0985783 1.25505
LeftToes  1.06245e-005 4.65855e-005 -8.18503e-006
